# xmcd CD database file
#
# Track frame offsets:
#	182
#	14470
#	29535
#	46292
#	57107
#	70395
#	83745
#	104057
#	125215
#	135512
#	152447
#	173795
#	186200
#
# Disc length: 2697 seconds
#
# Revision: 0
# Processed by: cddbd v1.4PL0 Copyright (c) Steve Scherf et al.
# Submitted via: CDex 1.50
#
DISCID=b20a870d
DTITLE=Bobek Pavel - Zvlastni vec
DYEAR=1993
DGENRE=Country
TTITLE0=Zvlastni vec
TTITLE1=Z nebe pada ranni dest
TTITLE2=Neprekrocis svuj stin
TTITLE3=Kobylka
TTITLE4=Ginny Come Lately
TTITLE5=Country Boy
TTITLE6=Znas me nejlip
TTITLE7=Vez tonu a slov
TTITLE8=Je mi lito vsech andelu
TTITLE9=Otec a syn
TTITLE10=Vidensky waltz
TTITLE11=Co muzem vic nez verit
TTITLE12=Buh ma me rad
EXTD=YEAR: 1993
EXTT0=
EXTT1=
EXTT2=
EXTT3=
EXTT4=
EXTT5=
EXTT6=
EXTT7=
EXTT8=
EXTT9=
EXTT10=
EXTT11=
EXTT12=
PLAYORDER=
